<svg width="15" height="17" viewBox="0 0 15 17" fill="none" xmlns="http://www.w3.org/2000/svg">
<path d="M7.5 0C5.79498 0 4.1598 0.67165 2.95418 1.86719C1.74855 3.06274 1.07123 4.68424 1.07123 6.375V10.1851L0.31371 10.9363C0.163909 11.0849 0.0618994 11.2742 0.0205758 11.4803C-0.0207479 11.6864 0.000470319 11.9 0.0815478 12.0941C0.162625 12.2882 0.299922 12.4541 0.476081 12.5709C0.652239 12.6876 0.859351 12.75 1.07123 12.75H13.9288C14.1406 12.75 14.3478 12.6876 14.5239 12.5709C14.7001 12.4541 14.8374 12.2882 14.9185 12.0941C14.9995 11.9 15.0207 11.6864 14.9794 11.4803C14.9381 11.2742 14.8361 11.0849 14.6863 10.9363L13.9288 10.1851V6.375C13.9288 4.68424 13.2515 3.06274 12.0458 1.86719C10.8402 0.67165 9.20502 0 7.5 0V0ZM7.5 17C6.64749 17 5.8299 16.6642 5.22709 16.0664C4.62427 15.4686 4.28562 14.6579 4.28562 13.8125H10.7144C10.7144 14.6579 10.3757 15.4686 9.77291 16.0664C9.1701 16.6642 8.35251 17 7.5 17Z" fill="white"/>
</svg>
