<svg width="24" height="24" viewBox="0 0 24 24" fill="none" xmlns="http://www.w3.org/2000/svg">
<path d="M11.5 3C9.79498 3 8.1598 3.67165 6.95418 4.86719C5.74855 6.06274 5.07123 7.68424 5.07123 9.375V13.1851L4.31371 13.9363C4.16391 14.0849 4.0619 14.2742 4.02058 14.4803C3.97925 14.6864 4.00047 14.9 4.08155 15.0941C4.16263 15.2882 4.29992 15.4541 4.47608 15.5709C4.65224 15.6876 4.85935 15.75 5.07123 15.75H17.9288C18.1406 15.75 18.3478 15.6876 18.5239 15.5709C18.7001 15.4541 18.8374 15.2882 18.9185 15.0941C18.9995 14.9 19.0207 14.6864 18.9794 14.4803C18.9381 14.2742 18.8361 14.0849 18.6863 13.9363L17.9288 13.1851V9.375C17.9288 7.68424 17.2515 6.06274 16.0458 4.86719C14.8402 3.67165 13.205 3 11.5 3V3ZM11.5 20C10.6475 20 9.8299 19.6642 9.22709 19.0664C8.62427 18.4686 8.28562 17.6579 8.28562 16.8125H14.7144C14.7144 17.6579 14.3757 18.4686 13.7729 19.0664C13.1701 19.6642 12.3525 20 11.5 20Z" fill="white"/>
</svg>
