<svg width="8" height="13" viewBox="0 0 8 13" fill="none" xmlns="http://www.w3.org/2000/svg">
<path fill-rule="evenodd" clip-rule="evenodd" d="M7.76548 7.77503C7.91564 7.91568 8 8.10641 8 8.30529C8 8.50416 7.91564 8.6949 7.76548 8.83554L4.56147 11.8356C4.41126 11.9762 4.20756 12.0552 3.99516 12.0552C3.78277 12.0552 3.57907 11.9762 3.42886 11.8356L0.224851 8.83554C0.0789424 8.69409 -0.00179396 8.50463 3.1076e-05 8.30798C0.00185611 8.11133 0.0860964 7.92322 0.234609 7.78416C0.383121 7.64511 0.584022 7.56623 0.794042 7.56452C1.00406 7.56281 1.2064 7.63841 1.35747 7.77503L3.19416 9.4948L3.19416 0.805185C3.19416 0.60627 3.27856 0.415502 3.42877 0.274848C3.57899 0.134194 3.78273 0.0551754 3.99517 0.0551754C4.2076 0.0551755 4.41134 0.134194 4.56156 0.274848C4.71178 0.415502 4.79617 0.60627 4.79617 0.805186L4.79617 9.4948L6.63286 7.77503C6.78307 7.63442 6.98677 7.55544 7.19917 7.55544C7.41157 7.55544 7.61527 7.63442 7.76548 7.77503V7.77503Z" fill="#F91212"/>
</svg>
