<svg width="20" height="18" viewBox="0 0 20 18" fill="none" xmlns="http://www.w3.org/2000/svg">
<path d="M1 1H6.39997C7.35475 1 8.27042 1.37928 8.94554 2.05441C9.62067 2.72954 9.99995 3.64521 9.99995 4.59998V17.1999C9.99995 16.4838 9.71549 15.7971 9.20915 15.2907C8.7028 14.7844 8.01605 14.4999 7.29997 14.4999H1V1Z" stroke="#252C32" stroke-linecap="round" stroke-linejoin="round"/>
<path d="M19 1H13.6C12.6452 1 11.7295 1.37928 11.0544 2.05441C10.3793 2.72954 10 3.64521 10 4.59998V17.1999C10 16.4838 10.2845 15.7971 10.7908 15.2907C11.2972 14.7844 11.9839 14.4999 12.7 14.4999H19V1Z" stroke="#252C32" stroke-linecap="round" stroke-linejoin="round"/>
</svg>
