<svg width="8" height="12" viewBox="0 0 8 12" fill="none" xmlns="http://www.w3.org/2000/svg">
<path fill-rule="evenodd" clip-rule="evenodd" d="M0.234522 4.28015C0.0843579 4.1395 0 3.94877 0 3.74989C0 3.55101 0.0843579 3.36028 0.234522 3.21963L3.43853 0.219593C3.58874 0.0789875 3.79244 0 4.00484 0C4.21723 0 4.42093 0.0789875 4.57114 0.219593L7.77515 3.21963C7.92106 3.36109 8.00179 3.55054 7.99997 3.74719C7.99814 3.94384 7.9139 4.13195 7.76539 4.27101C7.61688 4.41007 7.41598 4.48895 7.20596 4.49066C6.99594 4.49236 6.7936 4.41677 6.64253 4.28015L4.80584 2.56037V11.25C4.80584 11.4489 4.72145 11.6397 4.57123 11.7803C4.42101 11.921 4.21727 12 4.00484 12C3.7924 12 3.58866 11.921 3.43844 11.7803C3.28823 11.6397 3.20383 11.4489 3.20383 11.25V2.56037L1.36714 4.28015C1.21693 4.42075 1.01323 4.49974 0.80083 4.49974C0.588433 4.49974 0.384732 4.42075 0.234522 4.28015V4.28015Z" fill="#1AE650"/>
</svg>
