<svg width="1553" height="1510" viewBox="0 0 1553 1510" fill="none" xmlns="http://www.w3.org/2000/svg">
<path d="M1016.44 226.281C1170.98 281.389 1385.42 311.339 1484.85 423.951C1585.49 536.563 1569.91 733.035 1466.88 852.835C1362.66 972.635 1168.58 1015.76 1021.23 1149.94C873.874 1285.31 773.242 1511.74 675.006 1509.34C575.572 1506.94 478.534 1274.53 341.962 1136.76C204.192 997.794 26.8878 953.467 2.92775 863.617C-21.0322 773.767 108.352 637.195 162.262 477.861C216.172 318.527 195.806 137.629 267.686 56.1655C340.764 -25.2985 506.088 -7.32848 636.67 41.7895C767.252 92.1055 861.894 171.173 1016.44 226.281Z" fill="#5D44FF"/>
</svg>
